<mxfile host="app.diagrams.net" modified="2024-05-18T01:44:20.564Z" agent="Mozilla/5.0 (Windows NT 10.0; Win64; x64) AppleWebKit/537.36 (KHTML, like Gecko) Chrome/124.0.0.0 Safari/537.36" etag="7-KK2fvKXkwXfJjKdGRt" version="24.4.4" type="google">
  <diagram name="Página-1" id="kuxr40KwJ2OkeYepErVL">
    <mxGraphModel grid="1" page="1" gridSize="10" guides="1" tooltips="1" connect="1" arrows="1" fold="1" pageScale="1" pageWidth="850" pageHeight="1400" math="0" shadow="0">
      <root>
        <mxCell id="0" />
        <mxCell id="1" parent="0" />
        <mxCell id="V9JkDK1YXYN4RzTSsW7F-11" value="" style="endArrow=classic;html=1;rounded=0;strokeWidth=4;" edge="1" parent="1">
          <mxGeometry width="50" height="50" relative="1" as="geometry">
            <mxPoint x="412" y="70" as="sourcePoint" />
            <mxPoint x="410" y="720" as="targetPoint" />
          </mxGeometry>
        </mxCell>
        <mxCell id="V9JkDK1YXYN4RzTSsW7F-12" value="&lt;b&gt;&lt;font style=&quot;font-size: 14px;&quot;&gt;Inicia el CU06&lt;/font&gt;&lt;/b&gt;" style="text;html=1;align=center;verticalAlign=middle;whiteSpace=wrap;rounded=0;" vertex="1" parent="1">
          <mxGeometry x="352" y="40" width="130" height="30" as="geometry" />
        </mxCell>
        <mxCell id="V9JkDK1YXYN4RzTSsW7F-13" value="" style="endArrow=none;html=1;rounded=0;" edge="1" parent="1">
          <mxGeometry width="50" height="50" relative="1" as="geometry">
            <mxPoint x="573" y="370" as="sourcePoint" />
            <mxPoint x="613" y="370" as="targetPoint" />
          </mxGeometry>
        </mxCell>
        <mxCell id="V9JkDK1YXYN4RzTSsW7F-14" value="" style="endArrow=none;html=1;rounded=0;" edge="1" parent="1">
          <mxGeometry width="50" height="50" relative="1" as="geometry">
            <mxPoint x="583" y="390" as="sourcePoint" />
            <mxPoint x="603" y="390" as="targetPoint" />
          </mxGeometry>
        </mxCell>
        <mxCell id="V9JkDK1YXYN4RzTSsW7F-15" value="" style="endArrow=none;html=1;rounded=0;" edge="1" parent="1">
          <mxGeometry width="50" height="50" relative="1" as="geometry">
            <mxPoint x="583" y="380" as="sourcePoint" />
            <mxPoint x="603" y="380" as="targetPoint" />
          </mxGeometry>
        </mxCell>
        <mxCell id="V9JkDK1YXYN4RzTSsW7F-16" value="&lt;b&gt;&lt;font style=&quot;font-size: 14px;&quot;&gt;Fin de caso de uso&lt;/font&gt;&lt;/b&gt;" style="text;html=1;align=center;verticalAlign=middle;whiteSpace=wrap;rounded=0;" vertex="1" parent="1">
          <mxGeometry x="529" y="395.20000000000005" width="130" height="30" as="geometry" />
        </mxCell>
        <mxCell id="V9JkDK1YXYN4RzTSsW7F-17" value="" style="endArrow=none;html=1;rounded=0;edgeStyle=orthogonalEdgeStyle;curved=1;endFill=0;" edge="1" parent="1">
          <mxGeometry width="50" height="50" relative="1" as="geometry">
            <mxPoint x="412" y="140" as="sourcePoint" />
            <mxPoint x="592" y="350" as="targetPoint" />
          </mxGeometry>
        </mxCell>
        <mxCell id="V9JkDK1YXYN4RzTSsW7F-18" value="&lt;b&gt;&lt;font style=&quot;font-size: 14px;&quot;&gt;Fin de caso de uso&lt;/font&gt;&lt;/b&gt;" style="text;html=1;align=center;verticalAlign=middle;whiteSpace=wrap;rounded=0;" vertex="1" parent="1">
          <mxGeometry x="352" y="740" width="130" height="30" as="geometry" />
        </mxCell>
        <mxCell id="V9JkDK1YXYN4RzTSsW7F-19" value="CU06_1&lt;span style=&quot;white-space:pre&quot;&gt;&#x9;&lt;/span&gt;Fecha de inicio es mayor a Fecha final&amp;nbsp;&lt;div&gt;&lt;/div&gt;" style="text;html=1;align=center;verticalAlign=middle;whiteSpace=wrap;rounded=0;" vertex="1" parent="1">
          <mxGeometry x="230" y="220" width="100" height="40" as="geometry" />
        </mxCell>
        <mxCell id="V9JkDK1YXYN4RzTSsW7F-25" value="CU06_2&lt;span style=&quot;white-space:pre&quot;&gt;&#x9;&lt;/span&gt;Se ingresa cliente que no existe&lt;div&gt;&lt;/div&gt;" style="text;html=1;align=center;verticalAlign=middle;whiteSpace=wrap;rounded=0;" vertex="1" parent="1">
          <mxGeometry x="450" y="110" width="130" height="30" as="geometry" />
        </mxCell>
        <mxCell id="V9JkDK1YXYN4RzTSsW7F-26" value="" style="endArrow=none;html=1;rounded=0;edgeStyle=orthogonalEdgeStyle;curved=1;endFill=0;" edge="1" parent="1">
          <mxGeometry width="50" height="50" relative="1" as="geometry">
            <mxPoint x="412" y="250" as="sourcePoint" />
            <mxPoint x="593.25" y="370" as="targetPoint" />
          </mxGeometry>
        </mxCell>
        <mxCell id="V9JkDK1YXYN4RzTSsW7F-27" value="&lt;div&gt;&lt;/div&gt;&lt;div&gt;CU06_3&lt;span style=&quot;white-space:pre&quot;&gt;&#x9;&lt;/span&gt;Se ingresa cliente que ya existe&lt;br&gt;&lt;/div&gt;" style="text;html=1;align=center;verticalAlign=middle;whiteSpace=wrap;rounded=0;" vertex="1" parent="1">
          <mxGeometry x="425" y="210" width="110" height="40" as="geometry" />
        </mxCell>
        <mxCell id="ePPbJb4B6fXtUg0NVfXD-3" value="" style="endArrow=block;html=1;rounded=0;edgeStyle=orthogonalEdgeStyle;curved=1;endFill=1;" edge="1" parent="1">
          <mxGeometry width="50" height="50" relative="1" as="geometry">
            <mxPoint x="410" y="230" as="sourcePoint" />
            <mxPoint x="410" y="90" as="targetPoint" />
            <Array as="points">
              <mxPoint x="410" y="220" />
              <mxPoint x="270" y="220" />
              <mxPoint x="270" y="90" />
            </Array>
          </mxGeometry>
        </mxCell>
        <mxCell id="ePPbJb4B6fXtUg0NVfXD-6" value="CU06_4    El nombre del proyecto ya existe" style="text;whiteSpace=wrap;" vertex="1" parent="1">
          <mxGeometry x="170" y="300" width="110" height="40" as="geometry" />
        </mxCell>
        <mxCell id="ePPbJb4B6fXtUg0NVfXD-8" value="" style="endArrow=none;html=1;rounded=0;edgeStyle=orthogonalEdgeStyle;curved=1;endFill=0;" edge="1" parent="1">
          <mxGeometry width="50" height="50" relative="1" as="geometry">
            <mxPoint x="410" y="290" as="sourcePoint" />
            <mxPoint x="250" y="480" as="targetPoint" />
          </mxGeometry>
        </mxCell>
        <mxCell id="ePPbJb4B6fXtUg0NVfXD-9" value="" style="endArrow=none;html=1;rounded=0;" edge="1" parent="1">
          <mxGeometry width="50" height="50" relative="1" as="geometry">
            <mxPoint x="234" y="480" as="sourcePoint" />
            <mxPoint x="274" y="480" as="targetPoint" />
          </mxGeometry>
        </mxCell>
        <mxCell id="ePPbJb4B6fXtUg0NVfXD-10" value="" style="endArrow=none;html=1;rounded=0;" edge="1" parent="1">
          <mxGeometry width="50" height="50" relative="1" as="geometry">
            <mxPoint x="244" y="500" as="sourcePoint" />
            <mxPoint x="264" y="500" as="targetPoint" />
          </mxGeometry>
        </mxCell>
        <mxCell id="ePPbJb4B6fXtUg0NVfXD-11" value="" style="endArrow=none;html=1;rounded=0;" edge="1" parent="1">
          <mxGeometry width="50" height="50" relative="1" as="geometry">
            <mxPoint x="244" y="490" as="sourcePoint" />
            <mxPoint x="264" y="490" as="targetPoint" />
          </mxGeometry>
        </mxCell>
        <mxCell id="ePPbJb4B6fXtUg0NVfXD-12" value="&lt;b&gt;&lt;font style=&quot;font-size: 14px;&quot;&gt;Fin de caso de uso&lt;/font&gt;&lt;/b&gt;" style="text;html=1;align=center;verticalAlign=middle;whiteSpace=wrap;rounded=0;" vertex="1" parent="1">
          <mxGeometry x="190" y="505.20000000000005" width="130" height="30" as="geometry" />
        </mxCell>
        <mxCell id="ePPbJb4B6fXtUg0NVfXD-14" value="CU06_5    Los campos se encuentran en blanco" style="text;whiteSpace=wrap;" vertex="1" parent="1">
          <mxGeometry x="580" y="500.2" width="130" height="40" as="geometry" />
        </mxCell>
        <mxCell id="ePPbJb4B6fXtUg0NVfXD-15" value="" style="endArrow=none;html=1;rounded=0;edgeStyle=orthogonalEdgeStyle;curved=1;endFill=0;" edge="1" parent="1">
          <mxGeometry width="50" height="50" relative="1" as="geometry">
            <mxPoint x="410" y="460.2" as="sourcePoint" />
            <mxPoint x="591.25" y="580.2" as="targetPoint" />
          </mxGeometry>
        </mxCell>
        <mxCell id="ePPbJb4B6fXtUg0NVfXD-16" value="" style="endArrow=none;html=1;rounded=0;" edge="1" parent="1">
          <mxGeometry width="50" height="50" relative="1" as="geometry">
            <mxPoint x="573" y="580" as="sourcePoint" />
            <mxPoint x="613" y="580" as="targetPoint" />
          </mxGeometry>
        </mxCell>
        <mxCell id="ePPbJb4B6fXtUg0NVfXD-17" value="" style="endArrow=none;html=1;rounded=0;" edge="1" parent="1">
          <mxGeometry width="50" height="50" relative="1" as="geometry">
            <mxPoint x="583" y="600" as="sourcePoint" />
            <mxPoint x="603" y="600" as="targetPoint" />
          </mxGeometry>
        </mxCell>
        <mxCell id="ePPbJb4B6fXtUg0NVfXD-18" value="" style="endArrow=none;html=1;rounded=0;" edge="1" parent="1">
          <mxGeometry width="50" height="50" relative="1" as="geometry">
            <mxPoint x="583" y="590" as="sourcePoint" />
            <mxPoint x="603" y="590" as="targetPoint" />
          </mxGeometry>
        </mxCell>
        <mxCell id="ePPbJb4B6fXtUg0NVfXD-19" value="&lt;b&gt;&lt;font style=&quot;font-size: 14px;&quot;&gt;Fin de caso de uso&lt;/font&gt;&lt;/b&gt;" style="text;html=1;align=center;verticalAlign=middle;whiteSpace=wrap;rounded=0;" vertex="1" parent="1">
          <mxGeometry x="529" y="605.2" width="130" height="30" as="geometry" />
        </mxCell>
      </root>
    </mxGraphModel>
  </diagram>
</mxfile>
